# xmcd
#
# Track frame offsets: 
#        150
#        11730
#        27985
#        45300
#        60520
#        76547
#        89210
#        104077
#        122395
#        135142
#
# Disc length: 2017 seconds
#
# Revision: 2
# Processed by: cddbd v1.4PL0 Copyright (c) Steve Scherf et al.
# Submitted via: ExactAudioCopy v0.90b4
#
DISCID=7107df0a
DTITLE=Larry Stewart - Down The Road
DYEAR=1993
DGENRE=Country
TTITLE0=Alright Already
TTITLE1=When I Close My Eyes
TTITLE2=I'll Cry Tomorrow
TTITLE3=She Needs Me
TTITLE4=We Can Love
TTITLE5=I Came Straight To You
TTITLE6=When You Come Back To Me
TTITLE7=The Boy Down The Road
TTITLE8=The Night Is Young
TTITLE9=Brittany
EXTD=
EXTT0=
EXTT1=
EXTT2=
EXTT3=
EXTT4=
EXTT5=
EXTT6=
EXTT7=
EXTT8=
EXTT9=
PLAYORDER=
